<svg width="24" height="22" viewBox="0 0 24 22" fill="none" xmlns="http://www.w3.org/2000/svg">
<path d="M14.6667 3.33341C14.6667 3.45049 14.6591 3.5658 14.6445 3.67889C18.858 4.88016 20 8.9209 20 11.1112V19.3334H22.6667C23.4031 19.3334 24 19.9303 24 20.6667C24 21.4031 23.4031 22.0001 22.6667 22.0001H1.33333C0.59696 22.0001 0 21.4031 0 20.6667C0 19.9303 0.59696 19.3334 1.33333 19.3334H4V11.1112C4 8.9209 5.14197 4.88016 9.35547 3.67889C9.34093 3.5658 9.33333 3.45049 9.33333 3.33341C9.33333 1.86065 10.5272 0.666748 12 0.666748C13.4728 0.666748 14.6667 1.86065 14.6667 3.33341Z" fill="#585858"/>
</svg>
