<svg width="20" height="24" viewBox="0 0 20 24" fill="none" xmlns="http://www.w3.org/2000/svg">
<path d="M18.9085 8.18824C17.3093 9.17647 16.3215 10.8706 16.3215 12.7529C16.3215 14.8706 17.5915 16.8 19.52 17.6C19.1437 18.8235 18.5793 19.9529 17.8737 20.9882C16.8389 22.4471 15.7571 23.9529 14.1579 23.9529C12.5587 23.9529 12.0883 23.0118 10.2068 23.0118C8.37243 23.0118 7.71393 24 6.20877 24C4.70361 24 3.66882 22.6353 2.49292 20.9412C0.940723 18.5882 0.0470361 15.8588 0 12.9882C0 8.32941 3.01031 5.83529 6.02063 5.83529C7.61986 5.83529 8.93687 6.87059 9.92463 6.87059C10.8653 6.87059 12.3705 5.78824 14.1579 5.78824C16.0393 5.74118 17.8267 6.63529 18.9085 8.18824ZM13.3112 3.81176C14.1108 2.87059 14.5342 1.69412 14.5812 0.470588C14.5812 0.329412 14.5812 0.141176 14.5342 0C13.1701 0.141176 11.9001 0.8 11.0065 1.83529C10.2068 2.72941 9.73648 3.85882 9.68945 5.08235C9.68945 5.22353 9.68945 5.36471 9.73648 5.50588C9.83055 5.50588 9.97166 5.55294 10.0657 5.55294C11.3357 5.45882 12.5116 4.8 13.3112 3.81176Z" fill="black"/>
</svg>
