<svg width="28" height="28" viewBox="0 0 28 28" fill="none" xmlns="http://www.w3.org/2000/svg">
<path fill-rule="evenodd" clip-rule="evenodd" d="M13.9998 27.3334C21.3636 27.3334 27.3332 21.3638 27.3332 14.0001C27.3332 6.63628 21.3636 0.666748 13.9998 0.666748C6.63604 0.666748 0.666504 6.63628 0.666504 14.0001C0.666504 21.3638 6.63604 27.3334 13.9998 27.3334ZM13.9998 12.6667C16.209 12.6667 17.9998 10.8759 17.9998 8.66675C17.9998 6.45761 16.209 4.66675 13.9998 4.66675C11.7906 4.66675 9.99984 6.45761 9.99984 8.66675C9.99984 10.8759 11.7906 12.6667 13.9998 12.6667ZM5.99984 19.3334C6.99984 16.3334 11.9998 15.3334 13.9998 15.3334C15.9998 15.3334 20.9998 16.3334 21.9998 19.3334C20.9998 22.3334 16.9998 23.3334 13.9998 23.3334C10.9998 23.3334 6.99984 22.3334 5.99984 19.3334Z" fill="#585858"/>
</svg>
