<svg width="20" height="20" viewBox="0 0 20 20" fill="none" xmlns="http://www.w3.org/2000/svg">
<path fill-rule="evenodd" clip-rule="evenodd" d="M20 10C20 15.5228 15.5228 20 10 20C4.47715 20 0 15.5228 0 10C0 4.47715 4.47715 0 10 0C15.5228 0 20 4.47715 20 10ZM6.46969 6.46955C6.76258 6.17665 7.23745 6.17665 7.53035 6.46955L10 8.9392L12.4697 6.46955C12.7625 6.17665 13.2374 6.17665 13.5303 6.46955C13.8232 6.76244 13.8232 7.23731 13.5303 7.53021L11.0607 9.99986L13.5303 12.4695C13.8232 12.7624 13.8232 13.2373 13.5303 13.5302C13.2374 13.8231 12.7626 13.8231 12.4697 13.5302L10 11.0605L7.53032 13.5302C7.23743 13.8231 6.76256 13.8231 6.46966 13.5302C6.17677 13.2373 6.17677 12.7624 6.46966 12.4695L8.93934 9.99986L6.46969 7.53021C6.17679 7.23731 6.17679 6.76244 6.46969 6.46955Z" fill="#434343"/>
</svg>
