<svg width="240" height="36" viewBox="0 0 240 36" fill="none" xmlns="http://www.w3.org/2000/svg">
<path d="M0 0.0429688H240V0.0429688C240 19.8318 223.958 35.8738 204.169 35.8738H35.8308C16.042 35.8738 0 19.8318 0 0.0429688V0.0429688Z" fill="white"/>
<path d="M48.96 10.722H52.56C52.392 15.834 52.392 22.41 52.56 27.522H48.96C49.104 22.41 49.104 15.834 48.96 10.722ZM64.7873 17.874H64.4033C64.4033 17.874 63.2273 15.714 60.2753 15.714C58.2113 15.738 56.9393 17.346 58.0673 18.81C59.5793 20.538 63.8033 20.778 64.7633 23.298C65.6033 25.434 63.2273 27.786 59.6992 27.762C54.8753 27.69 54.5153 24.618 54.5153 24.618L54.8753 24.642C54.8753 24.642 55.9073 27.402 59.4353 27.282C61.9073 27.21 62.6033 25.434 61.4993 24.186C60.2273 22.746 54.9953 21.93 54.5873 19.53C54.1553 17.034 57.1793 15.21 60.1313 15.258C63.9713 15.33 64.7873 17.874 64.7873 17.874ZM74.0188 15.354C76.5628 14.922 79.8268 16.074 79.8268 19.746V27.522H76.3708V19.722C76.3708 17.154 75.7468 15.978 74.0428 15.954C72.4348 15.93 70.8988 17.274 70.3228 17.874C70.3228 21.33 70.3468 24.81 70.4428 27.522H66.8428C66.9868 22.41 66.9868 14.49 66.8428 9.37797H70.4428C70.3708 11.634 70.3228 14.442 70.3228 17.298C70.8508 16.746 72.1708 15.618 74.0188 15.354ZM94.2771 21.114C94.3251 25.89 93.9891 27.066 95.5731 27.066V27.522C91.8051 27.906 91.0611 26.874 90.9651 24.882C90.4371 25.77 88.9491 27.666 85.5411 27.618C81.3651 27.57 80.1651 22.386 84.3891 20.346C86.8371 19.146 89.2851 19.026 90.8451 18.93C90.6531 16.938 90.0771 15.666 88.5891 15.594C86.5731 15.522 86.0451 17.754 86.0451 17.754H83.5731C83.5731 17.754 84.2691 15.066 88.8771 15.33C92.3571 15.498 94.2291 17.154 94.2771 21.114ZM87.8691 26.298C89.7411 26.202 90.6051 24.978 90.9411 24.21V24.162V21.57C90.9411 20.706 90.9411 19.914 90.8691 19.194C89.9571 19.266 88.3491 19.41 87.0051 20.154C84.1491 21.81 84.6051 26.466 87.8691 26.298ZM104.267 14.466C106.547 13.89 108.899 14.85 109.283 17.226H106.091C105.947 15.738 104.771 15.354 103.811 15.426C102.467 15.522 101.555 16.53 101.075 17.202C101.003 20.634 101.003 24.066 101.075 27.522H97.4991C97.5951 23.514 97.5951 19.53 97.4991 15.522H101.123C101.123 15.906 101.099 16.266 101.099 16.65C101.603 15.954 102.635 14.826 104.267 14.466ZM116.506 26.514C119.602 26.682 120.202 23.922 120.202 23.922H120.562C120.562 23.922 119.962 27.234 116.002 27.594C106.186 28.458 106.21 15.186 115.33 15.33C119.026 15.354 120.634 17.682 120.634 19.842L120.658 20.298L111.922 20.754C111.97 23.514 113.434 26.37 116.506 26.514ZM115.546 15.642C113.29 15.594 112.042 17.826 111.922 20.298L118.378 19.962C118.378 19.602 118.33 15.69 115.546 15.642ZM130.287 26.514C133.383 26.682 133.983 23.922 133.983 23.922H134.343C134.343 23.922 133.743 27.234 129.783 27.594C119.967 28.458 119.991 15.186 129.111 15.33C132.807 15.354 134.415 17.682 134.415 19.842L134.439 20.298L125.703 20.754C125.751 23.514 127.215 26.37 130.287 26.514ZM129.327 15.642C127.071 15.594 125.823 17.826 125.703 20.298L132.159 19.962C132.159 19.602 132.111 15.69 129.327 15.642ZM137.894 24.45C138.71 24.45 139.406 25.146 139.406 25.986C139.406 26.778 138.71 27.474 137.894 27.474C137.054 27.474 136.358 26.778 136.358 25.986C136.358 25.146 137.054 24.45 137.894 24.45ZM152.919 23.922H153.279C153.279 23.922 152.679 27.162 148.719 27.594C139.047 28.578 138.903 15.09 148.047 15.21C152.151 15.282 153.399 17.898 153.351 19.53L151.359 19.65C151.359 19.65 151.311 15.714 148.431 15.57C143.223 15.306 143.295 26.25 149.223 26.514C152.367 26.682 152.919 23.922 152.919 23.922ZM160.827 15.33C169.395 14.778 170.739 26.946 162.003 27.594C153.267 28.242 152.115 15.906 160.827 15.33ZM160.875 15.618C156.771 15.81 157.083 27.594 162.003 27.282C166.539 26.994 165.099 15.426 160.875 15.618ZM186.119 15.354C188.663 14.922 191.927 16.074 191.927 19.746V27.522H188.495V19.722C188.495 17.154 187.847 15.978 186.143 15.954C184.559 15.93 183.047 17.226 182.471 17.85C182.687 18.402 182.807 19.026 182.807 19.746V27.522H179.375V19.722C179.375 17.154 178.727 15.978 177.023 15.954C175.631 15.93 174.287 16.962 173.591 17.61C173.519 20.922 173.543 24.21 173.591 27.522H170.015C170.111 23.514 170.111 19.53 170.015 15.522H173.639C173.615 16.026 173.615 16.53 173.591 17.034C174.239 16.434 175.439 15.57 176.999 15.354C178.943 15.018 181.247 15.594 182.279 17.466C182.639 17.082 184.055 15.642 186.119 15.354Z" fill="#2D1C1F"/>
</svg>
