<svg width="24" height="24" viewBox="0 0 24 24" fill="none" xmlns="http://www.w3.org/2000/svg">
<g clip-path="url(#clip0_965_485979)">
<path d="M24 11.9998C24 5.37236 18.6274 -0.000217438 12 -0.000217438C5.37258 -0.000217438 0 5.37236 0 11.9998C0 17.9893 4.38823 22.9538 10.125 23.854V15.4685H7.07813V11.9998H10.125V9.35603C10.125 6.34853 11.9165 4.68728 14.6576 4.68728C15.9705 4.68728 17.3438 4.92166 17.3438 4.92166V7.87478H15.8306C14.3399 7.87478 13.875 8.79979 13.875 9.74877V11.9998H17.2031L16.6711 15.4685H13.875V23.854C19.6118 22.9538 24 17.9893 24 11.9998Z" fill="#1877F2"/>
<path d="M16.6711 15.4688L17.2031 12H13.875V9.74899C13.875 8.80001 14.3399 7.875 15.8306 7.875H17.3438V4.92188C17.3438 4.92188 15.9705 4.6875 14.6576 4.6875C11.9165 4.6875 10.125 6.34875 10.125 9.35625V12H7.07812V15.4688H10.125V23.8542C10.7359 23.9501 11.3621 24 12 24C12.6379 24 13.2641 23.9501 13.875 23.8542V15.4688H16.6711Z" fill="white"/>
</g>
<defs>
<clipPath id="clip0_965_485979">
<rect width="24" height="24" fill="white"/>
</clipPath>
</defs>
</svg>
