<svg width="204" height="105" viewBox="0 0 204 105" fill="none" xmlns="http://www.w3.org/2000/svg">
<path d="M163.548 61.1684C157.782 58.4678 143.345 49.4984 130.869 40.0704C124.632 35.3577 118.909 30.5481 115.012 26.3667C113.062 24.2738 111.591 22.3601 110.737 20.7119C109.873 19.0445 109.701 17.7679 110.125 16.8599C110.55 15.9519 111.64 15.2654 113.474 14.8595C115.287 14.4582 117.699 14.3608 120.556 14.5157C126.264 14.8252 133.624 16.134 141.24 17.8995C156.475 21.4314 172.613 26.7627 178.376 29.4611C184.094 32.1383 190.354 37.6263 194.732 43.4232C196.919 46.3191 198.618 49.2689 199.547 51.9576C200.48 54.6577 200.611 57.0181 199.782 58.7992C198.953 60.5795 197.061 61.9931 194.393 63.0082C191.735 64.0191 188.381 64.6051 184.755 64.7818C177.497 65.1354 169.266 63.8436 163.548 61.1684Z" fill="#FF9DCE" stroke="black"/>
<path d="M105.465 30.8725C96.036 43.3493 87.0668 57.7859 84.3681 63.5517L105.465 30.8725ZM105.465 30.8725C110.178 24.6356 114.988 18.9126 119.171 15.0164M105.465 30.8725L119.171 15.0164M119.171 15.0164C121.264 13.0662 123.178 11.5945 124.827 10.7405M119.171 15.0164L124.827 10.7405M124.827 10.7405C126.495 9.87654 127.772 9.70446 128.68 10.1293M124.827 10.7405L128.68 10.1293M128.68 10.1293C129.589 10.554 130.276 11.6444 130.682 13.4782M128.68 10.1293L130.682 13.4782M130.682 13.4782C131.083 15.2909 131.181 17.7033 131.026 20.5601M130.682 13.4782L131.026 20.5601M131.026 20.5601C130.717 26.2676 129.408 33.6285 127.641 41.2441M131.026 20.5601L127.641 41.2441M127.641 41.2441C124.108 56.4797 118.774 72.6184 116.071 78.3836M127.641 41.2441L116.071 78.3836M116.071 78.3836C113.39 84.1036 107.901 90.3642 102.105 94.7413M116.071 78.3836L102.105 94.7413M102.105 94.7413C99.2098 96.928 96.261 98.6269 93.5736 99.5555M102.105 94.7413L93.5736 99.5555M93.5736 99.5555C90.8749 100.488 88.5164 100.619 86.7373 99.7898M93.5736 99.5555L86.7373 99.7898M86.7373 99.7898C84.959 98.961 83.5468 97.0696 82.5326 94.4005M86.7373 99.7898L82.5326 94.4005M82.5326 94.4005C81.5227 91.7427 80.9371 88.3887 80.7605 84.7625M82.5326 94.4005L80.7605 84.7625M80.7605 84.7625C80.4069 77.5038 81.6966 69.2719 84.3679 63.552L80.7605 84.7625Z" fill="#FF9DCE" stroke="black"/>
<path d="M161.165 -18.0092C158.469 -12.2419 149.499 2.19602 140.07 14.6736C135.356 20.9107 130.546 26.6339 126.363 30.5301C124.269 32.4804 122.355 33.952 120.706 34.8061C119.038 35.67 117.761 35.8421 116.853 35.4173C115.944 34.9925 115.257 33.9024 114.851 32.0692C114.45 30.257 114.352 27.8452 114.507 24.9892C114.817 19.2831 116.126 11.924 117.892 4.30934C121.425 -10.9241 126.757 -27.0642 129.454 -32.8417C132.129 -38.5731 137.617 -44.8334 143.414 -49.207C146.31 -51.3918 149.259 -53.0881 151.948 -54.0145C154.648 -54.9447 157.008 -55.0735 158.788 -54.2433C160.567 -53.4135 161.981 -51.5213 162.996 -48.8521C164.007 -46.1942 164.594 -42.8405 164.772 -39.2148C165.127 -31.957 163.838 -23.727 161.165 -18.0092Z" fill="#FF9DCE" stroke="#585858"/>
<path d="M116.261 40.7336C118.416 56.2238 122.283 72.7753 124.455 78.7606L116.261 40.7336ZM116.261 40.7336C115.183 32.9905 114.538 25.5422 114.74 19.8302M116.261 40.7336L114.74 19.8302M114.74 19.8302C114.841 16.9711 115.154 14.5773 115.716 12.808M114.74 19.8302L115.716 12.808M115.716 12.808C116.285 11.0182 117.066 9.99404 118.009 9.65259M115.716 12.808L118.009 9.65259M118.009 9.65259C118.951 9.31112 120.208 9.5972 121.792 10.6076M118.009 9.65259L121.792 10.6076M121.792 10.6076C123.358 11.6063 125.133 13.244 127.044 15.3744M121.792 10.6076L127.044 15.3744M127.044 15.3744C130.861 19.6306 135.14 25.7625 139.277 32.3968M127.044 15.3744L139.277 32.3968M139.277 32.3968C147.553 45.6691 155.195 60.8497 157.364 66.8249M139.277 32.3968L157.364 66.8249M157.364 66.8249C159.517 72.7524 160.064 81.061 159.059 88.258M157.364 66.8249L159.059 88.258M159.059 88.258C158.557 91.8532 157.671 95.1421 156.423 97.7009M159.059 88.258L156.423 97.7009M156.423 97.7009C155.171 100.271 153.59 102.032 151.739 102.704M156.423 97.7009L151.739 102.704M151.739 102.704C149.887 103.376 147.548 103.037 144.945 101.868M151.739 102.704L144.945 101.868M144.945 101.868C142.353 100.703 139.571 98.7469 136.886 96.3088M144.945 101.868L136.886 96.3088M136.886 96.3088C131.513 91.4285 126.615 84.6972 124.455 78.761L136.886 96.3088Z" fill="#FF9DCE" stroke="black"/>
<path d="M121.086 -33.2151C123.255 -27.23 127.122 -10.6781 129.276 4.81223C130.353 12.5554 130.998 20.0037 130.795 25.7157C130.694 28.5747 130.38 30.9685 129.818 32.7378C129.249 34.5275 128.468 35.5518 127.524 35.8933C126.581 36.2348 125.324 35.9488 123.74 34.9389C122.174 33.9406 120.399 32.3034 118.488 30.1737C114.671 25.9187 110.391 19.7883 106.254 13.1549C97.9781 -0.115261 90.3339 -15.2961 88.1566 -21.2794C85.9967 -27.2146 85.4488 -35.523 86.4562 -42.7179C86.9594 -46.3121 87.8469 -49.5994 89.0954 -52.157C90.3491 -54.7253 91.9306 -56.4864 93.7826 -57.1581C95.6343 -57.8298 97.975 -57.4908 100.581 -56.3216C103.176 -55.1572 105.962 -53.2008 108.649 -50.7627C114.029 -45.8822 118.932 -39.1509 121.086 -33.2151Z" fill="#FF9DCE" stroke="#585858"/>
<path d="M66.7848 24.4577C72.7677 22.2884 89.3197 18.4211 104.811 16.2655C112.554 15.1879 120.003 14.5425 125.715 14.745C128.574 14.8464 130.968 15.1595 132.738 15.7217C134.527 16.2904 135.552 17.0721 135.893 18.0153C136.235 18.9586 135.949 20.2157 134.938 21.7998C133.94 23.3657 132.302 25.1407 130.171 27.0513C125.915 30.8684 119.783 35.1473 113.149 39.2833C99.8768 47.5576 84.6962 55.1977 78.721 57.3672C72.7934 59.5193 64.4849 60.0672 57.2879 59.0618C53.6926 58.5595 50.4038 57.6734 47.8449 56.4261C45.2753 55.1736 43.5135 53.593 42.8419 51.7413C42.1702 49.8896 42.5092 47.5499 43.6784 44.9454C44.8427 42.3517 46.7991 39.5684 49.2372 36.883C54.1176 31.5075 60.8489 26.6101 66.7848 24.4577Z" fill="#FF9DCE" stroke="#585858"/>
<path d="M80.7085 -5.9888L80.709 -5.9886C86.6684 -3.75456 101.766 4.05105 114.947 12.4699C121.535 16.6782 127.619 21.0238 131.833 24.887C133.942 26.8207 135.559 28.6133 136.541 30.1899C137.533 31.7848 137.805 33.0447 137.454 33.984C137.102 34.9231 136.069 35.6935 134.273 36.2426C132.497 36.7854 130.099 37.0723 127.239 37.1425C121.524 37.2827 114.082 36.5563 106.351 35.3946C90.8834 33.0708 74.3749 29.0242 68.4194 26.7902C62.5111 24.5739 55.8346 19.5935 51.0122 14.1575C48.6031 11.4419 46.6764 8.63429 45.5394 6.02725C44.3975 3.40908 44.0833 1.06771 44.7735 -0.770456C45.4639 -2.609 47.2408 -4.16739 49.8223 -5.39055C52.3928 -6.60852 55.6894 -7.45881 59.2888 -7.92216C66.4941 -8.84969 74.7965 -8.21282 80.7085 -5.9888Z" fill="#FF9DCE" stroke="#585858"/>
<path d="M178.766 21.0883C172.783 23.2596 156.231 27.1259 140.74 29.281C132.997 30.3583 125.548 31.0036 119.836 30.8015C116.976 30.7004 114.582 30.3876 112.813 29.826C111.023 29.2577 109.999 28.4766 109.657 27.5345C109.316 26.5923 109.602 25.3361 110.612 23.7523C111.611 22.1868 113.249 20.4119 115.379 18.5013C119.636 14.6842 125.768 10.4044 132.402 6.26711C145.675 -2.00967 160.857 -9.65376 166.834 -11.8251C172.763 -13.9792 181.072 -14.5271 188.268 -13.5212C191.862 -13.0187 195.151 -12.1323 197.709 -10.8847C200.277 -9.63185 202.038 -8.05114 202.709 -6.19948C203.38 -4.34779 203.04 -2.00774 201.87 0.597188C200.704 3.19127 198.747 5.97509 196.309 8.66101C191.428 14.0376 184.698 18.936 178.766 21.0883L178.936 21.5583L178.766 21.0883Z" fill="#FF9DCE" stroke="black"/>
<path d="M169.716 41.7463C164.2 41.7463 149.56 40.005 136.288 37.1809C129.654 35.7693 123.391 34.0931 118.796 32.2402C116.496 31.3126 114.642 30.3516 113.371 29.375C112.084 28.3852 111.5 27.4617 111.5 26.6231C111.5 25.7846 112.084 24.8611 113.371 23.8713C114.642 22.8946 116.496 21.9337 118.796 21.0061C123.391 19.1532 129.654 17.477 136.288 16.0654C149.56 13.2413 164.2 11.5 169.716 11.5C175.182 11.5 182.113 13.5065 187.68 16.4494C190.461 17.9194 192.875 19.6096 194.587 21.3754C196.307 23.1498 197.263 24.9419 197.263 26.6231C197.263 28.3044 196.307 30.0965 194.587 31.8709C192.875 33.6367 190.461 35.3269 187.68 36.7968C182.113 39.7398 175.182 41.7463 169.716 41.7463Z" fill="#FFAAD7" stroke="black"/>
<path d="M75.6677 11.8389C81.1835 11.8389 95.8229 13.5792 109.094 16.4028C115.728 17.8141 121.99 19.4902 126.584 21.3433C128.885 22.271 130.738 23.2321 132.009 24.2089C133.296 25.199 133.88 26.1229 133.88 26.962C133.88 27.8011 133.296 28.725 132.009 29.7151C130.738 30.6919 128.885 31.653 126.584 32.5807C121.99 34.4338 115.728 36.1099 109.094 37.5212C95.8229 40.3448 81.1835 42.0851 75.6677 42.0851C70.2023 42.0851 63.2708 40.0767 57.7037 37.1328C54.9231 35.6623 52.5088 33.9718 50.7969 32.2064C49.0767 30.4323 48.1211 28.6411 48.1211 26.962C48.1211 25.2828 49.0765 23.4917 50.7964 21.7176C52.5079 19.9521 54.9218 18.2617 57.7023 16.7912C63.2688 13.8473 70.2003 11.8389 75.6677 11.8389Z" fill="#FFAAD7" stroke="black"/>
<path d="M106.711 73.1291C106.711 67.6133 108.452 52.9739 111.277 39.7027C112.689 33.0692 114.365 26.8069 116.219 22.2124C117.147 19.9123 118.108 18.0583 119.085 16.788C120.075 15.5006 120.999 14.917 121.838 14.917C122.677 14.917 123.601 15.5006 124.591 16.788C125.568 18.0583 126.529 19.9123 127.456 22.2124C129.309 26.8069 130.984 33.0692 132.395 39.7027C135.218 52.9738 136.957 67.6133 136.957 73.1291C136.957 78.5945 134.95 85.526 132.006 91.0931C130.536 93.8737 128.846 96.288 127.08 97.9998C125.306 99.72 123.514 100.676 121.834 100.676C120.154 100.676 118.362 99.72 116.588 97.9998C114.822 96.288 113.132 93.8737 111.662 91.0931C108.718 85.526 106.711 78.5945 106.711 73.1291Z" fill="#FFAAD7" stroke="black"/>
<path d="M136.957 -19.2083C136.957 -13.6925 135.216 0.947868 132.392 14.2201C130.98 20.8541 129.304 27.1169 127.451 31.7118C126.523 34.0121 125.563 35.8662 124.586 37.1367C123.596 38.4242 122.673 39.0078 121.834 39.0078C120.996 39.0078 120.072 38.4242 119.082 37.1367C118.106 35.8662 117.145 34.0121 116.217 31.7118C114.364 27.1169 112.688 20.8541 111.276 14.2201C108.452 0.947868 106.711 -13.6925 106.711 -19.2083C106.711 -24.6737 108.719 -31.6052 111.664 -37.1722C113.134 -39.9529 114.825 -42.3672 116.591 -44.079C118.366 -45.7992 120.158 -46.7549 121.838 -46.7549C123.518 -46.7549 125.309 -45.7988 127.083 -44.078C128.849 -42.3656 130.538 -39.9506 132.008 -37.1694C134.951 -31.6013 136.957 -24.6698 136.957 -19.2083Z" fill="#FFAAD7" stroke="#585858"/>
<path d="M143.792 70.3022C139.89 66.3991 130.77 54.8133 123.382 43.431C119.69 37.7417 116.447 32.1282 114.509 27.5698C113.538 25.2878 112.907 23.2978 112.7 21.7097C112.489 20.1001 112.73 19.0357 113.323 18.4439C113.916 17.8519 114.982 17.6122 116.593 17.8234C118.182 18.0317 120.173 18.6637 122.455 19.6345C127.014 21.5738 132.628 24.8167 138.317 28.5089C149.698 35.8957 161.281 45.0146 165.182 48.9156C169.047 52.781 172.528 59.1005 174.382 65.117C175.308 68.1221 175.819 71.0238 175.78 73.4821C175.741 75.9525 175.149 77.8949 173.959 79.0833C172.77 80.2717 170.827 80.8629 168.356 80.9013C165.898 80.9395 162.996 80.4277 159.991 79.5013C153.976 77.6467 147.657 74.1656 143.792 70.3022Z" fill="#FFAAD7" stroke="black"/>
<path d="M99.8827 -16.3775L99.8829 -16.3774C103.784 -12.4784 112.905 -0.895571 120.292 10.4857C123.985 16.1745 127.228 21.788 129.167 26.347C130.138 28.6294 130.769 30.6198 130.977 32.2086C131.188 33.8188 130.948 34.8843 130.355 35.4771C129.762 36.0699 128.697 36.3102 127.086 36.0996C125.498 35.8918 123.507 35.2601 121.225 34.2895C116.666 32.3507 111.052 29.1077 105.363 25.4152C93.9812 18.028 82.3973 8.90802 78.4962 5.00895C74.631 1.14561 71.1498 -5.17488 69.2956 -11.1924C68.3695 -14.198 67.8581 -17.1002 67.8966 -19.5587C67.9352 -22.0294 68.5267 -23.9714 69.7148 -25.1586C70.9031 -26.346 72.8458 -26.937 75.3166 -26.9755C77.7754 -27.0138 80.6775 -26.5026 83.6829 -25.5767C89.6999 -23.7229 96.0194 -20.2428 99.8827 -16.3775Z" fill="#FFAAD7" stroke="black"/>
<path d="M78.4957 48.9154C82.3968 45.0144 93.9796 35.8925 105.361 28.5043C111.05 24.8113 116.663 21.5681 121.222 19.6294C123.505 18.6588 125.495 18.0274 127.084 17.8198C128.695 17.6095 129.761 17.8501 130.354 18.4434C130.948 19.0367 131.188 20.1027 130.978 21.7129C130.77 23.3019 130.139 25.2923 129.168 27.5746C127.23 32.1336 123.986 37.7467 120.293 43.4353C112.905 54.816 103.783 66.3989 99.8821 70.302C96.0168 74.1692 89.6973 77.6494 83.6808 79.5026C80.6757 80.4282 77.774 80.9391 75.3156 80.9005C72.845 80.8617 70.9026 80.2705 69.7143 79.0831C68.5261 77.8959 67.9349 75.9539 67.8965 73.4833C67.8583 71.0247 68.3701 68.1225 69.2965 65.1169C71.1512 59.0993 74.6324 52.7788 78.4957 48.9154Z" fill="#FFAAD7" stroke="black"/>
<path d="M165.181 5.00881C161.278 8.90808 149.694 18.0289 138.313 25.4165C132.624 29.1092 127.011 32.3523 122.452 34.291C120.17 35.2615 118.18 35.8929 116.591 36.1005C114.981 36.3108 113.915 36.0702 113.323 35.477C112.73 34.8837 112.489 33.8177 112.7 32.2072C112.908 30.6181 113.539 28.6276 114.509 26.3451C116.448 21.7859 119.691 16.1725 123.383 10.484C130.77 -0.896788 139.89 -12.4786 143.79 -16.3776C147.656 -20.241 153.976 -23.7222 159.993 -25.5774C162.999 -26.5041 165.901 -27.0162 168.359 -26.9785C170.829 -26.9407 172.771 -26.3501 173.958 -25.163C175.146 -23.9757 175.737 -22.0336 175.776 -19.5628C175.814 -17.1042 175.304 -14.2018 174.378 -11.1959C172.525 -5.17793 169.046 1.14352 165.181 5.00881Z" fill="#FFAAD7" stroke="black"/>
<path d="M121.66 49.6379C116.976 49.6387 112.398 48.2506 108.503 45.6491C104.609 43.0477 101.573 39.3497 99.7802 35.023C97.9873 30.6962 97.5179 25.935 98.4311 21.3414C99.3443 16.7478 101.599 12.5282 104.911 9.21619C108.222 5.90419 112.441 3.64857 117.035 2.73458C121.628 1.8206 126.39 2.2893 130.717 4.08142C135.044 5.87353 138.742 8.90857 141.344 12.8027C143.946 16.6968 145.335 21.2751 145.335 25.9586C145.335 32.2381 142.841 38.2604 138.401 42.701C133.961 47.1417 127.939 49.6369 121.66 49.6379Z" fill="#FEDFCE" stroke="black"/>
<g clip-path="url(#clip0_1673_82459)">
<path d="M52.7867 19.8685L52.7867 19.8686C51.5497 22.9152 47.286 30.6432 42.7239 37.3742C40.4441 40.738 38.1064 43.8278 36.0514 45.9497C35.0217 47.0129 34.0838 47.8111 33.2771 48.283C32.4518 48.7657 31.8788 48.8416 31.5017 48.6882C31.1245 48.5349 30.7669 48.0808 30.5123 47.1592C30.2636 46.2583 30.1485 45.0321 30.1524 43.5521C30.1604 40.5982 30.6409 36.7537 31.3538 32.7534C32.7805 24.7487 35.1158 16.2377 36.3528 13.1922C37.5708 10.1935 40.228 6.82124 43.102 4.4082C44.5366 3.20377 46.003 2.25731 47.345 1.71494C48.6982 1.16802 49.85 1.06097 50.7135 1.41149C51.5769 1.76195 52.3275 2.64141 52.9156 3.97685C53.4989 5.3012 53.8893 7.00204 54.077 8.86568C54.4531 12.5994 54.0047 16.8698 52.7867 19.8685Z" fill="#FFCEC1" stroke="black"/>
<path d="M8.58473 81.5028L8.58477 81.5027C9.82173 78.4573 14.0855 70.73 18.6472 63.9992C20.9269 60.6356 23.2644 57.5459 25.3191 55.424C26.3486 54.3608 27.2863 53.5626 28.0927 53.0908C28.9179 52.608 29.4905 52.5323 29.8672 52.6855C30.2441 52.8388 30.6015 53.2928 30.856 54.2145C31.1047 55.1153 31.2198 56.3415 31.2158 57.8214C31.208 60.7751 30.7278 64.6193 30.0151 68.6194C28.5891 76.6239 26.2544 85.1348 25.0162 88.1815C23.7969 91.1815 21.1403 94.5532 18.2672 96.9656C16.8332 98.1697 15.3673 99.1158 14.0257 99.6581C12.6729 100.205 11.5213 100.312 10.6577 99.9622C9.7945 99.6123 9.0438 98.7332 8.45546 97.3979C7.87202 96.0736 7.48135 94.3726 7.29349 92.5087C6.91712 88.7743 7.36549 84.5028 8.58473 81.5028Z" fill="#FFCEC1" stroke="black"/>
<path d="M61.5008 72.7843L61.5008 72.7843C58.4542 71.5473 50.7262 67.283 43.9952 62.7203C40.6314 60.4402 37.5416 58.1021 35.4197 56.0469C34.3565 55.0171 33.5583 54.0791 33.0864 53.2723C32.6037 52.4469 32.5278 51.8739 32.6811 51.4967C32.8345 51.1195 33.2886 50.762 34.2102 50.5074C35.1111 50.2586 36.3373 50.1436 37.8173 50.1476C40.7712 50.1555 44.6156 50.6361 48.6159 51.3492C56.6207 52.7762 65.1316 55.1121 68.177 56.3503C71.1758 57.5696 74.5481 60.2268 76.9612 63.1003C78.1656 64.5346 79.1121 66.0005 79.6544 67.3419C80.2014 68.6947 80.3084 69.8457 79.9579 70.7085C79.6075 71.5713 78.728 72.3218 77.3925 72.9101C76.0681 73.4935 74.3672 73.8843 72.5036 74.0725C68.7698 74.4494 64.4995 74.0023 61.5008 72.7843Z" fill="#FFCEC1" stroke="black"/>
<path d="M-0.135378 28.5896L-0.135218 28.5897C2.91138 29.8266 10.6394 34.0904 17.3704 38.6521C20.7342 40.9318 23.824 43.2693 25.9459 45.324C27.0091 46.3535 27.8073 47.2912 28.2792 48.0976C28.7619 48.9228 28.8377 49.4953 28.6844 49.8721C28.5312 50.249 28.0771 50.6064 27.1555 50.8609C26.2546 51.1096 25.0285 51.2246 23.5485 51.2207C20.5948 51.2129 16.7505 50.7327 12.7502 50.02C4.74543 48.594 -3.76613 46.2593 -6.81411 45.021C-9.81536 43.8018 -13.187 41.1452 -15.5991 38.2721C-16.803 36.8381 -17.7489 35.3722 -18.291 34.0306C-18.8377 32.6778 -18.9448 31.5262 -18.5947 30.6626C-18.2449 29.7994 -17.3658 29.0487 -16.0304 28.4603C-14.7062 27.8769 -13.0052 27.4862 -11.1412 27.2984C-7.40689 26.922 -3.13536 27.3704 -0.135378 28.5896Z" fill="#FFCEC1" stroke="black"/>
<path d="M48.5784 49.3612C56.5247 47.6369 64.9435 44.9848 67.9423 43.6351L48.5784 49.3612ZM48.5784 49.3612C44.6073 50.2229 40.7833 50.8463 37.8319 50.9637M48.5784 49.3612L37.8319 50.9637M37.8319 50.9637C36.3532 51.0225 35.1236 50.9527 34.2143 50.7371M37.8319 50.9637L34.2143 50.7371M34.2143 50.7371C33.2842 50.5166 32.8171 50.1756 32.6498 49.8034M34.2143 50.7371L32.6498 49.8034M32.6498 49.8034C32.4823 49.4309 32.5372 48.8545 32.9889 48.0114M32.6498 49.8034L32.9889 48.0114M32.9889 48.0114C33.4305 47.1873 34.1934 46.2201 35.2175 45.1515M32.9889 48.0114L35.2175 45.1515M35.2175 45.1515C37.2616 43.0188 40.2622 40.5682 43.5387 38.1655M35.2175 45.1515L43.5387 38.1655M43.5387 38.1655C50.0951 33.3575 57.6589 28.8111 60.6575 27.4602M43.5387 38.1655L60.6575 27.4602M60.6575 27.4602C63.61 26.1301 67.8571 25.5236 71.5996 25.7615M60.6575 27.4602L71.5996 25.7615M71.5996 25.7615C73.4676 25.8803 75.1808 26.2078 76.5259 26.7421M71.5996 25.7615L76.5259 26.7421M76.5259 26.7421C77.8821 27.2809 78.7904 27.9992 79.1753 28.8504M76.5259 26.7421L79.1753 28.8504M79.1753 28.8504C79.5598 29.701 79.4971 30.8557 79.002 32.2276M79.1753 28.8504L79.002 32.2276M79.002 32.2276C78.511 33.5882 77.6202 35.0879 76.4701 36.5654M79.002 32.2276L76.4701 36.5654M76.4701 36.5654C74.166 39.5255 70.8939 42.3048 67.9425 43.635L76.4701 36.5654Z" fill="#FFCEC1" stroke="black"/>
<path d="M-6.57491 57.7379L-6.57484 57.7379C-3.57763 56.3883 4.84065 53.7392 12.7869 52.0168C16.7579 51.156 20.5818 50.5332 23.5332 50.4156C25.012 50.3567 26.2416 50.4261 27.1511 50.6412C28.0815 50.8612 28.5484 51.2015 28.7155 51.5724C28.8826 51.9433 28.828 52.5183 28.3762 53.3608C27.9345 54.1843 27.1716 55.151 26.1473 56.2192C24.103 58.3513 21.1021 60.8019 17.8254 63.2049C11.2686 68.0135 3.70486 72.5619 0.707563 73.9127C-2.24363 75.2428 -6.49077 75.8493 -10.234 75.6117C-12.1023 75.4931 -13.816 75.1658 -15.1617 74.6318C-16.5185 74.0933 -17.4275 73.3754 -17.8129 72.5247C-18.1978 71.6749 -18.1353 70.5205 -17.6401 69.1482C-17.1489 67.7873 -16.2576 66.287 -15.1069 64.8088C-12.8015 61.8473 -9.52746 59.0668 -6.57491 57.7379Z" fill="#FFCEC1" stroke="black"/>
<path d="M37.7342 87.9344L37.734 87.9341C36.3844 84.9368 33.7347 76.5185 32.012 68.5724C31.151 64.6013 30.5282 60.7774 30.4107 57.826C30.3518 56.3472 30.4213 55.1177 30.6365 54.2083C30.8567 53.2779 31.1972 52.8109 31.5685 52.6438C31.9398 52.4766 32.5151 52.5312 33.3578 52.983C34.1814 53.4246 35.1482 54.1874 36.2164 55.2116C38.3486 57.2557 40.7991 60.2563 43.202 63.5329C48.0103 70.0893 52.558 77.6531 53.9088 80.6516C55.2389 83.6041 55.8448 87.8512 55.6069 91.5941C55.4881 93.4623 55.1607 95.1758 54.6268 96.5213C54.0885 97.878 53.3709 98.7868 52.5207 99.1721C51.6715 99.5571 50.5173 99.4951 49.1452 99.0006C47.7844 98.5102 46.284 97.6199 44.8057 96.4698C41.8441 94.1657 39.063 90.8918 37.7342 87.9344Z" fill="#FFCEC1" stroke="black"/>
<path d="M23.6304 13.4275C24.9801 16.4313 27.6299 24.8505 29.3526 32.7956C30.2135 36.7661 30.8364 40.5891 30.9539 43.5398C31.0128 45.0182 30.9432 46.2474 30.728 47.1566C30.5079 48.0866 30.1674 48.5535 29.7961 48.7206C29.4248 48.8878 28.8494 48.8332 28.0068 48.3814C27.1832 47.9397 26.2164 47.1767 25.1481 46.1525C23.016 44.1082 20.5655 41.1072 18.1626 37.8303C13.3543 31.2732 8.80655 23.7089 7.45573 20.7103C6.12566 17.7579 5.51973 13.5107 5.75766 9.76816C5.87641 7.90012 6.20383 6.18688 6.73771 4.84174C7.27602 3.48542 7.99361 2.57715 8.84362 2.1924C9.69271 1.80806 10.8472 1.87077 12.2199 2.36618C13.5812 2.85747 15.0821 3.74858 16.5607 4.89902C19.5232 7.2039 22.3041 10.4766 23.6304 13.4275Z" fill="#FFCEC1" stroke="black"/>
<path d="M39.5495 13.8152C39.5495 17.1044 38.5086 25.869 36.8165 33.8221C35.9709 37.7966 34.9686 41.539 33.864 44.2784C33.3105 45.651 32.7423 46.7436 32.1728 47.4844C31.5901 48.2424 31.088 48.5283 30.6811 48.5283C30.2742 48.5283 29.7722 48.2424 29.1895 47.4844C28.6199 46.7436 28.0517 45.651 27.4983 44.2784C26.3936 41.539 25.3913 37.7966 24.5458 33.8221C22.8537 25.869 21.8127 17.1044 21.8127 13.8152C21.8127 10.5764 23.0042 6.44948 24.7578 3.13043C25.6331 1.47377 26.635 0.0443418 27.6741 -0.963603C28.7218 -1.97997 29.7487 -2.5127 30.6811 -2.5127C31.6135 -2.5127 32.6403 -1.97974 33.6881 -0.962961C34.7272 0.045378 35.7291 1.47529 36.6044 3.13228C38.3581 6.45201 39.5495 10.5789 39.5495 13.8152Z" fill="#FFF0DE" stroke="black"/>
<path d="M21.8164 87.5548C21.8164 84.2669 22.8567 75.5028 24.5485 67.5501C25.3939 63.5758 26.3961 59.8335 27.5009 57.0941C28.0544 55.7216 28.6227 54.629 29.1924 53.8882C29.7752 53.1303 30.2775 52.8442 30.6848 52.8442C31.0921 52.8442 31.5944 53.1303 32.1772 53.8882C32.7469 54.629 33.3152 55.7216 33.8687 57.0941C34.9735 59.8335 35.9757 63.5758 36.8211 67.5501C38.5129 75.5028 39.5532 84.2669 39.5532 87.5548C39.5532 90.7923 38.3611 94.9192 36.6072 98.2386C35.7317 99.8955 34.7297 101.325 33.6907 102.333C32.643 103.35 31.6165 103.883 30.6848 103.883C29.753 103.883 28.7265 103.35 27.6789 102.333C26.6399 101.325 25.6379 99.8955 24.7624 98.2386C23.0084 94.9192 21.8164 90.7923 21.8164 87.5548Z" fill="#FFF0DE" stroke="black"/>
<path d="M67.5504 59.5546C64.2612 59.5546 55.4972 58.5137 47.5448 56.8216C43.5706 55.976 39.8285 54.9738 37.0893 53.8691C35.7169 53.3156 34.6244 52.7474 33.8836 52.1779C33.1258 51.5952 32.8398 51.0932 32.8398 50.6862C32.8398 50.2793 33.1258 49.7773 33.8836 49.1946C34.6244 48.6251 35.7169 48.0569 37.0893 47.5034C39.8285 46.3987 43.5706 45.3965 47.5448 44.5509C55.4972 42.8588 64.2612 41.8179 67.5504 41.8179C70.7892 41.8179 74.9161 43.0099 78.2352 44.7639C79.8918 45.6393 81.3213 46.6413 82.3292 47.6803C83.3457 48.7279 83.8783 49.7545 83.8783 50.6862C83.8783 51.618 83.3455 52.6445 82.3289 53.6922C81.3208 54.7311 79.8911 55.7332 78.2342 56.6086C74.9148 58.3626 70.7879 59.5546 67.5504 59.5546Z" fill="#FFF0DE" stroke="black"/>
<path d="M-6.1877 41.8179C-2.89979 41.8179 5.86421 42.8588 13.817 44.5509C17.7913 45.3965 21.5336 46.3987 24.273 47.5034C25.6455 48.0569 26.7381 48.6251 27.479 49.1946C28.2369 49.7773 28.5228 50.2794 28.5228 50.6862C28.5228 51.0931 28.2369 51.5952 27.479 52.1779C26.7381 52.7474 25.6455 53.3156 24.273 53.8691C21.5336 54.9738 17.7913 55.976 13.817 56.8216C5.86421 58.5137 -2.89979 59.5546 -6.1877 59.5546C-9.42529 59.5546 -13.5522 58.3632 -16.8716 56.6096C-18.5284 55.7343 -19.9581 54.7323 -20.9662 53.6933C-21.9828 52.6455 -22.5156 51.6187 -22.5156 50.6862C-22.5156 49.7538 -21.9828 48.727 -20.9662 47.6792C-19.9581 46.6402 -18.5284 45.6382 -16.8716 44.7629C-13.5522 43.0093 -9.42529 41.8179 -6.1877 41.8179Z" fill="#FFF0DE" stroke="black"/>
<path d="M62.5455 30.1269C60.2768 32.5057 53.4749 38.1291 46.7618 42.7165C43.407 45.009 40.0989 47.0256 37.409 48.2458C36.0613 48.8572 34.8961 49.2559 33.9728 49.3991C33.0281 49.5456 32.4677 49.4062 32.1735 49.1256C31.8794 48.8451 31.7134 48.2918 31.8149 47.3408C31.9141 46.4115 32.2569 45.2283 32.8035 43.8527C33.8944 41.1071 35.7514 37.7061 37.8819 34.2456C42.1451 27.3208 47.439 20.2596 49.7086 17.885C51.9437 15.5463 55.6526 13.3858 59.2109 12.1958C60.987 11.6019 62.698 11.2592 64.1452 11.2465C65.6045 11.2337 66.7152 11.5559 67.3901 12.1979C68.0647 12.8396 68.4404 13.9322 68.4976 15.3898C68.5543 16.8354 68.2935 18.5607 67.7842 20.3632C66.7638 23.9746 64.7794 27.7834 62.5455 30.1269Z" fill="#FFF0DE" stroke="black"/>
<path d="M-1.18061 71.2468L-1.18043 71.2466C1.08814 68.8668 7.89001 63.2427 14.6035 58.6552C17.9585 56.3627 21.2668 54.3463 23.957 53.1264C25.3049 52.5151 26.4703 52.1166 27.3938 51.9737C28.3387 51.8274 28.8994 51.967 29.194 52.2479C29.4885 52.5288 29.6546 53.0825 29.5532 54.0335C29.454 54.963 29.1111 56.1462 28.5644 57.5219C27.4731 60.2675 25.6155 63.6683 23.4845 67.1285C19.22 74.0527 13.9248 81.1126 11.6565 83.4861C9.42256 85.8235 5.71367 87.984 2.15499 89.1746C0.378724 89.7689 -1.33253 90.1121 -2.77997 90.1253C-4.2396 90.1386 -5.35039 89.8169 -6.02524 89.1755C-6.69967 88.5345 -7.07555 87.4422 -7.13293 85.9844C-7.18983 84.5388 -6.92918 82.8132 -6.42005 81.0103C-5.4 77.3983 -3.41559 73.589 -1.18061 71.2468Z" fill="#FFF0DE" stroke="black"/>
<path d="M51.2412 82.5484C48.8625 80.2798 43.239 73.4779 38.6516 66.7647C36.3591 63.4099 34.3425 60.1018 33.1222 57.4119C32.5108 56.0641 32.1122 54.899 31.969 53.9756C31.8224 53.0309 31.9619 52.4705 32.2424 52.1764C32.523 51.8823 33.0762 51.7163 34.0272 51.8179C34.9566 51.9171 36.1397 52.26 37.5153 52.8067C40.2609 53.8978 43.6619 55.7551 47.1224 57.8857C54.0472 62.1492 61.1085 67.4432 63.4832 69.7115C65.8218 71.9454 67.9822 75.6542 69.1725 79.2129C69.7667 80.9891 70.1096 82.7004 70.1227 84.1478C70.1358 85.6074 69.814 86.7183 69.1725 87.3931C68.5315 88.0676 67.4392 88.4434 65.9813 88.5008C64.5357 88.5577 62.81 88.2971 61.007 87.7879C57.3946 86.7679 53.5847 84.7835 51.2412 82.5484L50.8961 82.9102L51.2412 82.5484Z" fill="#FFF0DE" stroke="black"/>
<path d="M10.1212 18.8236C12.5011 21.0935 18.1253 27.8955 22.7127 34.6083C25.0052 37.963 27.0216 41.2708 28.2416 43.9605C28.8528 45.3081 29.2513 46.4732 29.3942 47.3964C29.5405 48.341 29.4009 48.9013 29.1201 49.1955C28.8392 49.4898 28.2855 49.6557 27.3344 49.5543C26.4049 49.4551 25.2216 49.1123 23.846 48.5657C21.1004 47.4748 17.6995 45.6177 14.2393 43.4873C7.31512 39.2241 0.255268 33.9302 -2.11808 31.6607C-4.45561 29.4255 -6.61606 25.7159 -7.80672 22.1576C-8.40103 20.3814 -8.74419 18.6706 -8.75742 17.2238C-8.77075 15.7648 -8.44905 14.6552 -7.80791 13.9817C-7.16692 13.3084 -6.07449 12.933 -4.61655 12.8758C-3.17085 12.8191 -1.44517 13.0795 0.357728 13.5882C3.96981 14.6074 7.77906 16.5899 10.1212 18.8236Z" fill="#FFF0DE" stroke="black"/>
<path d="M37.5713 52.3811V52.3815C37.5713 53.7565 37.1635 55.1005 36.3996 56.2437C35.6357 57.3868 34.55 58.2778 33.2797 58.8038C32.0094 59.3299 30.6116 59.4674 29.2631 59.199C27.9147 58.9306 26.6761 58.2683 25.704 57.296C24.732 56.3236 24.0701 55.0848 23.8022 53.7362C23.5342 52.3877 23.6722 50.99 24.1987 49.7199C24.7251 48.4497 25.6164 47.3643 26.7599 46.6007C27.9033 45.8372 29.2475 45.4299 30.6224 45.4303H30.6228C31.5355 45.4303 32.4392 45.6101 33.2824 45.9595C34.1256 46.3088 34.8917 46.8208 35.5369 47.4663C36.1822 48.1118 36.694 48.8781 37.043 49.7214C37.3921 50.5647 37.5716 51.4685 37.5713 52.3811Z" fill="white" stroke="#87C5FF" stroke-width="2.42319"/>
<path d="M36.0234 52.3812V52.3813C36.0234 53.4499 35.7065 54.4944 35.1128 55.3829C34.5191 56.2713 33.6753 56.9638 32.6881 57.3726C31.7008 57.7814 30.6145 57.8883 29.5665 57.6797C28.5185 57.4711 27.5559 56.9564 26.8004 56.2007C26.045 55.445 25.5306 54.4822 25.3223 53.4342C25.1141 52.3861 25.2213 51.2998 25.6305 50.3127C26.0397 49.3256 26.7324 48.482 27.621 47.8886C28.5096 47.2952 29.5543 46.9787 30.6229 46.979H30.623C31.3324 46.979 32.0348 47.1187 32.6901 47.3902C33.3454 47.6618 33.9408 48.0597 34.4423 48.5614C34.9438 49.063 35.3416 49.6586 35.6128 50.314C35.8841 50.9694 36.0236 51.6718 36.0234 52.3812Z" fill="#87C5FF" stroke="white"/>
</g>
<defs>
<clipPath id="clip0_1673_82459">
<rect width="107.372" height="107.372" fill="white" transform="translate(-23 -3)"/>
</clipPath>
</defs>
</svg>
