<svg width="198" height="121" viewBox="0 0 198 121" fill="none" xmlns="http://www.w3.org/2000/svg">
<path d="M187.744 70.6071C182.585 66.8765 170.078 55.367 159.583 43.7734C154.337 37.978 149.614 32.1836 146.568 27.3477C145.043 24.9272 143.955 22.7722 143.424 20.9934C142.887 19.1939 142.957 17.9076 143.544 17.095C144.13 16.2824 145.33 15.8118 147.207 15.7558C149.063 15.7004 151.451 16.0555 154.229 16.7416C159.778 18.1123 166.764 20.7737 173.915 23.9313C188.222 30.2483 203.079 38.5017 208.237 42.2297C213.353 45.9283 218.478 52.4897 221.695 59.0026C223.302 62.2562 224.42 65.4716 224.83 68.2866C225.242 71.1134 224.93 73.4567 223.782 75.0514C222.635 76.6455 220.513 77.6806 217.701 78.1791C214.902 78.6754 211.497 78.6244 207.902 78.1203C200.706 77.1111 192.861 74.3038 187.744 70.6071Z" fill="#FF9DCE" stroke="black"/>
<path d="M136.346 29.9899C124.752 40.4847 113.243 52.9906 109.514 58.1505L136.346 29.9899ZM136.346 29.9899C142.142 24.7438 147.937 20.0206 152.774 16.9746M136.346 29.9899L152.774 16.9746M152.774 16.9746C155.195 15.45 157.35 14.362 159.13 13.8312M152.774 16.9746L159.13 13.8312M159.13 13.8312C160.93 13.2942 162.216 13.3638 163.03 13.9509M159.13 13.8312L163.03 13.9509M163.03 13.9509C163.843 14.538 164.314 15.7375 164.37 17.6149M163.03 13.9509L164.37 17.6149M164.37 17.6149C164.426 19.4707 164.071 21.8589 163.384 24.6364M164.37 17.6149L163.384 24.6364M163.384 24.6364C162.014 30.1855 159.352 37.172 156.194 44.3234M163.384 24.6364L156.194 44.3234M156.194 44.3234C149.875 58.6302 141.619 73.4876 137.886 78.6462M156.194 44.3234L137.886 78.6462M137.886 78.6462C134.184 83.7643 127.621 88.8887 121.109 92.1055M137.886 78.6462L121.109 92.1055M121.109 92.1055C117.856 93.7125 114.642 94.8303 111.828 95.2404M121.109 92.1055L111.828 95.2404M111.828 95.2404C109.003 95.6523 106.661 95.3399 105.069 94.1929M111.828 95.2404L105.069 94.1929M105.069 94.1929C103.477 93.0464 102.443 90.9243 101.945 88.1127M105.069 94.1929L101.945 88.1127M101.945 88.1127C101.45 85.313 101.501 81.9086 102.006 78.3133M101.945 88.1127L102.006 78.3133M102.006 78.3133C103.015 71.1165 105.82 63.2707 109.513 58.1508L102.006 78.3133Z" fill="#FF9DCE" stroke="black"/>
<path d="M200.201 -7.6205C196.474 -2.45871 184.964 10.0485 173.369 20.5439C167.573 25.7902 161.777 30.5135 156.94 33.5594C154.519 35.084 152.364 36.172 150.584 36.7028C148.784 37.2398 147.497 37.1702 146.684 36.583C145.871 35.9959 145.4 34.7967 145.344 32.9199C145.288 31.0646 145.643 28.6771 146.329 25.9003C147.7 20.3527 150.361 13.368 153.519 6.21749C159.837 -8.08726 168.092 -22.9464 171.821 -28.1182C175.52 -33.2486 182.081 -38.3729 188.593 -41.5861C191.846 -43.1913 195.061 -44.3064 197.875 -44.714C200.701 -45.1233 203.044 -44.8088 204.637 -43.6605C206.23 -42.5127 207.265 -40.3897 207.764 -37.5777C208.26 -34.7778 208.21 -31.3734 207.707 -27.7784C206.7 -20.582 203.896 -12.738 200.201 -7.6205Z" fill="#FF9DCE" stroke="#585858"/>
<path d="M145.109 41.6945C144.332 57.3146 145.038 74.2972 146.052 80.5829L145.109 41.6945ZM145.109 41.6945C145.498 33.8864 146.256 26.4487 147.522 20.8752M145.109 41.6945L147.522 20.8752M147.522 20.8752C148.156 18.0854 148.911 15.7923 149.794 14.1592M147.522 20.8752L149.794 14.1592M149.794 14.1592C150.686 12.5071 151.646 11.6471 152.635 11.4878M149.794 14.1592L152.635 11.4878M152.635 11.4878C153.625 11.3286 154.806 11.8445 156.174 13.1331M152.635 11.4878L156.174 13.1331M156.174 13.1331C157.525 14.4068 158.963 16.3474 160.442 18.7973M156.174 13.1331L160.442 18.7973M160.442 18.7973C163.396 23.692 166.454 30.5157 169.278 37.8062M160.442 18.7973L169.278 37.8062M169.278 37.8062C174.928 52.3913 179.598 68.7327 180.613 75.0081M169.278 37.8062L180.613 75.0081M180.613 75.0081C181.619 81.2333 180.605 89.4979 178.272 96.3802M180.613 75.0081L178.272 96.3802M178.272 96.3802C177.106 99.8182 175.621 102.884 173.918 105.164M178.272 96.3802L173.918 105.164M173.918 105.164C172.207 107.454 170.325 108.89 168.38 109.204M173.918 105.164L168.38 109.204M168.38 109.204C166.436 109.517 164.202 108.747 161.863 107.112M168.38 109.204L161.863 107.112M161.863 107.112C159.534 105.484 157.167 103.042 154.985 100.145M161.863 107.112L154.985 100.145M154.985 100.145C150.618 94.3467 147.065 86.8187 146.052 80.5834L154.985 100.145Z" fill="#FF9DCE" stroke="black"/>
<path d="M163.67 -30.049C164.682 -23.7638 165.387 -6.78106 164.608 8.83905C164.219 16.6471 163.461 24.0847 162.194 29.6581C161.56 32.4478 160.805 34.7409 159.922 36.3738C159.029 38.0258 158.069 38.8858 157.079 39.045C156.088 39.2043 154.907 38.6884 153.539 37.4002C152.187 36.1268 150.75 34.1867 149.271 31.7374C146.316 26.844 143.258 20.0218 140.433 12.7322C134.783 -1.85097 130.11 -18.1929 129.09 -24.4777C128.077 -30.7121 129.092 -38.9765 131.426 -45.8563C132.592 -49.2931 134.078 -52.3567 135.783 -54.6359C137.494 -56.9247 139.377 -58.3591 141.322 -58.6729C143.267 -58.9866 145.503 -58.2162 147.844 -56.5805C150.176 -54.9516 152.547 -52.5091 154.732 -49.6117C159.105 -43.8117 162.663 -36.2828 163.67 -30.049Z" fill="#FF9DCE" stroke="#585858"/>
<path d="M99.5467 16.459C105.83 15.446 122.813 14.7404 138.434 15.5178C146.242 15.9065 153.68 16.6645 159.254 17.931C162.044 18.565 164.337 19.3199 165.97 20.2029C167.622 21.0961 168.482 22.0555 168.642 23.0459C168.801 24.0364 168.285 25.2178 166.996 26.5852C165.722 27.9369 163.782 29.3745 161.332 30.8533C156.437 33.8077 149.614 36.8652 142.323 39.6885C127.739 45.3365 111.397 50.0049 105.122 51.0194C98.8968 52.0257 90.6323 51.0112 83.75 48.6785C80.3119 47.5131 77.2466 46.028 74.966 44.3244C72.6758 42.6137 71.2403 40.7318 70.9266 38.7871C70.6129 36.8425 71.3831 34.6074 73.0185 32.2673C74.6471 29.9369 77.0891 27.5683 79.9861 25.3859C85.7852 21.0171 93.3132 17.4641 99.5467 16.459Z" fill="#FF9DCE" stroke="#585858"/>
<path d="M118.916 -10.8486L118.916 -10.8483C124.353 -7.5399 137.726 2.94983 149.101 13.6837C154.787 19.0491 159.951 24.4552 163.368 29.0378C165.079 31.3315 166.333 33.395 167.002 35.1272C167.68 36.8795 167.711 38.1681 167.19 39.025C166.669 39.8819 165.51 40.4456 163.643 40.6493C161.797 40.8507 159.388 40.6845 156.565 40.2188C150.925 39.2885 143.75 37.1841 136.372 34.598C121.611 29.4244 106.15 22.3638 100.717 19.0561C95.3269 15.7746 89.6988 9.63417 85.9773 3.39266C84.1183 0.274695 82.7502 -2.8435 82.1205 -5.61711C81.488 -8.40256 81.6169 -10.7614 82.6385 -12.4382C83.6603 -14.1153 85.6972 -15.3142 88.4618 -16.0333C91.2146 -16.7494 94.612 -16.9686 98.2346 -16.7511C105.486 -16.3157 113.523 -14.1384 118.916 -10.8486Z" fill="#FF9DCE" stroke="#585858"/>
<path d="M210.185 34.0777C203.901 35.0926 186.919 35.7973 171.298 35.0193C163.489 34.6304 156.051 33.8723 150.477 32.6062C147.687 31.9724 145.394 31.2178 143.761 30.3353C142.109 29.4426 141.248 28.4838 141.089 27.4945C140.93 26.5051 141.446 25.3245 142.734 23.9574C144.008 22.6061 145.948 21.1687 148.398 19.6898C153.293 16.7354 160.117 13.6771 167.408 10.8526C181.994 5.20226 198.336 0.530182 204.614 -0.485858C210.842 -1.49378 219.106 -0.479258 225.987 1.85378C229.425 3.01924 232.489 4.50461 234.769 6.20827C237.058 7.91909 238.493 9.80104 238.806 11.7454C239.118 13.6898 238.347 15.9251 236.711 18.2655C235.082 20.5961 232.639 22.9651 229.741 25.148C223.942 29.5177 216.414 33.0719 210.185 34.0777L210.264 34.5713L210.185 34.0777Z" fill="#FF9DCE" stroke="black"/>
<path d="M197.433 52.68C192.015 51.6492 177.958 47.2024 165.447 41.9476C159.194 39.321 153.355 36.5039 149.187 33.8249C147.101 32.4837 145.459 31.1932 144.393 29.9963C143.313 28.7833 142.913 27.767 143.069 26.9433C143.226 26.1195 143.972 25.3213 145.422 24.5896C146.852 23.8676 148.853 23.2701 151.287 22.7888C156.147 21.8272 162.613 21.351 169.394 21.2042C182.96 20.9103 197.668 21.9358 203.086 22.9667C208.455 23.9881 214.89 27.2547 219.809 31.1862C222.266 33.15 224.321 35.2616 225.673 37.3162C227.031 39.3808 227.635 41.32 227.321 42.9716C227.007 44.6232 225.733 46.2051 223.711 47.6268C221.7 49.0415 219.012 50.2507 216.006 51.1751C209.987 53.0258 202.803 53.7015 197.433 52.68Z" fill="#FFAAD7" stroke="black"/>
<path d="M110.632 5.72261C116.05 6.75347 130.107 11.1991 142.616 16.4532C148.869 19.0795 154.708 21.8964 158.875 24.5755C160.961 25.9167 162.603 27.2073 163.668 28.4044C164.748 29.6176 165.149 30.6343 164.992 31.4586C164.835 32.283 164.089 33.0816 162.639 33.8135C161.209 34.5358 159.208 35.1334 156.775 35.6149C151.915 36.5767 145.45 37.0528 138.669 37.1996C125.104 37.4931 110.398 36.4668 104.979 35.4359C99.61 34.4145 93.176 31.1461 88.2572 27.2135C85.8003 25.2493 83.7445 23.1374 82.3928 21.0831C81.0344 19.0188 80.4304 17.0806 80.7442 15.4311C81.058 13.7815 82.3313 12.2004 84.3525 10.779C86.3638 9.36456 89.0511 8.15504 92.0574 7.23012C98.0761 5.37838 105.261 4.7008 110.632 5.72261Z" fill="#FFAAD7" stroke="black"/>
<path d="M129.673 71.735C130.704 66.3164 135.151 52.2603 140.406 39.7509C143.032 33.4981 145.85 27.6595 148.529 23.4923C149.871 21.4061 151.161 19.7645 152.359 18.6991C153.572 17.6195 154.589 17.2188 155.413 17.3756C156.237 17.5325 157.036 18.2784 157.768 19.7281C158.49 21.1586 159.087 23.1595 159.569 25.5924C160.53 30.4522 161.006 36.9174 161.152 43.6977C161.445 57.2625 160.417 71.9691 159.386 77.3877C158.365 82.7569 155.098 89.1911 151.166 94.1099C149.202 96.5668 147.09 98.6226 145.035 99.9743C142.971 101.333 141.032 101.937 139.382 101.623C137.731 101.309 136.15 100.035 134.728 98.0134C133.313 96.0018 132.104 93.3141 131.18 90.3077C129.328 84.2886 128.652 77.1041 129.673 71.735Z" fill="#FFAAD7" stroke="black"/>
<path d="M176.644 -13.323C175.613 -7.90434 171.166 6.15265 165.911 18.6632C163.285 24.9165 160.467 30.7557 157.788 34.9233C156.447 37.0097 155.157 38.6516 153.96 39.7172C152.747 40.797 151.731 41.1977 150.907 41.041C150.083 40.8843 149.285 40.1384 148.553 38.6885C147.831 37.258 147.234 35.2569 146.752 32.8238C145.791 27.9635 145.315 21.4978 145.168 14.7169C144.874 1.15074 145.899 -13.5571 146.93 -18.9757C147.952 -24.3448 151.22 -30.7788 155.153 -35.6975C157.118 -38.1543 159.23 -40.21 161.285 -41.5616C163.349 -42.9199 165.288 -43.5238 166.939 -43.2098C168.589 -42.8958 170.171 -41.6219 171.592 -39.5998C173.006 -37.5877 174.214 -34.8994 175.139 -31.8925C176.989 -25.8726 177.664 -18.6882 176.644 -13.323Z" fill="#FFAAD7" stroke="#585858"/>
<path d="M166.629 75.8876C163.526 71.3243 156.731 58.238 151.601 45.6757C149.037 39.3965 146.9 33.2759 145.848 28.4355C145.321 26.0123 145.073 23.9395 145.166 22.3405C145.26 20.72 145.696 19.7193 146.389 19.2488C147.082 18.778 148.174 18.7418 149.717 19.2503C151.239 19.7519 153.077 20.7448 155.138 22.1251C159.254 24.8823 164.163 29.1172 169.061 33.8076C178.861 43.1913 188.536 54.3142 191.639 58.8756C194.714 63.3952 196.953 70.2541 197.649 76.5109C197.997 79.6362 197.957 82.5822 197.459 84.99C196.959 87.4095 196.014 89.207 194.624 90.1521C193.234 91.0973 191.214 91.315 188.78 90.891C186.358 90.469 183.603 89.424 180.824 87.9523C175.261 85.006 169.704 80.4054 166.629 75.8876Z" fill="#FFAAD7" stroke="black"/>
<path d="M139.693 -17.4711L139.693 -17.4709C142.797 -12.9115 149.592 0.171813 154.723 12.7333C157.287 19.012 159.424 25.1327 160.477 29.9738C161.004 32.3973 161.252 34.4707 161.16 36.0703C161.066 37.6916 160.63 38.6934 159.937 39.1649C159.244 39.6364 158.153 39.6734 156.61 39.1655C155.088 38.6645 153.251 37.672 151.19 36.2919C147.074 33.5352 142.165 29.3002 137.266 24.6095C127.466 15.2253 117.79 4.10109 114.687 -0.458357C111.612 -4.97601 109.373 -11.8357 108.676 -18.0937C108.328 -21.2195 108.368 -24.1662 108.865 -26.5742C109.365 -28.994 110.309 -30.7913 111.698 -31.7356C113.087 -32.68 115.106 -32.8975 117.541 -32.4735C119.963 -32.0516 122.719 -31.007 125.498 -29.5357C131.063 -26.5901 136.62 -21.9903 139.693 -17.4711Z" fill="#FFAAD7" stroke="black"/>
<path d="M106.48 42.6748C111.042 39.5716 124.125 32.7752 136.687 27.6442C142.966 25.0795 149.086 22.9425 153.928 21.89C156.351 21.3631 158.425 21.1148 160.025 21.2079C161.646 21.3023 162.648 21.7378 163.12 22.4316C163.592 23.1254 163.629 24.2175 163.122 25.7601C162.621 27.2822 161.628 29.1196 160.248 31.1803C157.492 35.2966 153.257 40.2047 148.566 45.1028C139.181 54.9022 128.055 64.5763 123.493 67.6815C118.973 70.7582 112.114 72.996 105.858 73.6921C102.732 74.0398 99.7863 73.9994 97.3784 73.502C94.9587 73.0022 93.1609 72.0583 92.2155 70.6698C91.2702 69.2814 91.0523 67.2631 91.4764 64.8289C91.8983 62.4065 92.9435 59.6511 94.4153 56.8715C97.3619 51.3067 101.963 45.7481 106.48 42.6748Z" fill="#FFAAD7" stroke="black"/>
<path d="M199.844 15.7427C195.281 18.8438 182.197 25.639 169.635 30.7694C163.357 33.3338 157.236 35.4708 152.395 36.5232C149.972 37.0501 147.899 37.2985 146.299 37.2055C144.678 37.1112 143.677 36.6757 143.205 35.9821C142.734 35.2885 142.697 34.1964 143.204 32.6536C143.706 31.1314 144.698 29.2939 146.078 27.233C148.834 23.1164 153.069 18.208 157.759 13.3097C167.143 3.50997 178.267 -6.16335 182.827 -9.26457C187.347 -12.3376 194.207 -14.5761 200.464 -15.2741C203.59 -15.6227 206.536 -15.5835 208.944 -15.0871C211.364 -14.5882 213.161 -13.6452 214.106 -12.257C215.05 -10.8688 215.268 -8.85041 214.844 -6.41591C214.423 -3.99337 213.379 -1.23762 211.908 1.54236C208.963 7.10807 204.364 12.6679 199.844 15.7427Z" fill="#FFAAD7" stroke="black"/>
<path d="M148.749 51.4515C144.148 50.577 139.909 48.3576 136.569 45.0741C133.23 41.7907 130.939 37.5906 129.986 33.005C129.033 28.4194 129.462 23.6543 131.218 19.3123C132.973 14.9703 135.977 11.2465 139.849 8.61174C143.721 5.97698 148.288 4.54965 152.971 4.51024C157.655 4.47084 162.244 5.82113 166.16 8.39036C170.076 10.9596 173.142 14.6324 174.971 18.9442C176.799 23.256 177.308 28.0132 176.433 32.6142C175.259 38.783 171.683 44.2331 166.492 47.7657C161.3 51.2983 154.918 52.6241 148.749 51.4515Z" fill="#FEDFCE" stroke="black"/>
<g clip-path="url(#clip0_1742_79263)">
<path d="M82.8609 -10.4123L82.8609 -10.4123C81.4459 -7.44415 76.7325 0.018085 71.7803 6.4675C69.3055 9.6905 66.7891 12.6366 64.6122 14.6333C63.5215 15.6337 62.538 16.3751 61.7048 16.7984C60.8523 17.2314 60.2759 17.2733 59.9085 17.0979C59.541 16.9225 59.2109 16.4481 59.0113 15.513C58.8163 14.599 58.7739 13.3681 58.8654 11.8909C59.0481 8.94267 59.7551 5.13337 60.7035 1.18225C62.6011 -6.72411 65.4358 -15.082 66.8507 -18.0491C68.244 -20.9704 71.0959 -24.1796 74.1077 -26.4184C75.611 -27.5359 77.1308 -28.394 78.5026 -28.856C79.8858 -29.3219 81.0419 -29.3607 81.8831 -28.9597C82.7243 -28.5588 83.4215 -27.6364 83.9297 -26.2686C84.4336 -24.912 84.7227 -23.1911 84.7999 -21.3196C84.9544 -17.5701 84.2542 -13.3338 82.8609 -10.4123Z" fill="#FFCEC1" stroke="black"/>
<path d="M35.0905 48.4995L35.0906 48.4994C36.5055 45.5326 41.2189 38.0709 46.1708 31.6218C48.6454 28.3989 51.1616 25.4529 53.3382 23.4562C54.4287 22.4558 55.412 21.7144 56.245 21.2911C57.0972 20.858 57.6733 20.8163 58.0403 20.9916C58.4075 21.1669 58.7375 21.6412 58.9369 22.5763C59.1319 23.4903 59.1742 24.7211 59.0828 26.1982C58.9002 29.1463 58.1935 32.9553 57.2455 36.9063C55.3484 44.8124 52.5144 53.1703 51.0982 56.1384C49.7036 59.0611 46.8522 62.2697 43.8414 64.508C42.3387 65.6251 40.8194 66.4829 39.4481 66.9449C38.0653 67.4108 36.9094 67.4497 36.068 67.0492C35.227 66.6489 34.5296 65.727 34.0213 64.3591C33.5172 63.0027 33.2278 61.2816 33.1506 59.4098C32.9957 55.6597 33.696 51.4221 35.0905 48.4995Z" fill="#FFCEC1" stroke="black"/>
<path d="M88.4299 42.9262L88.4299 42.9261C85.4618 41.5112 77.9996 36.7971 71.5502 31.8443C68.3272 29.3692 65.3811 26.8525 63.3845 24.6753C62.3841 23.5845 61.6427 22.6009 61.2194 21.7676C60.7863 20.9151 60.7445 20.3386 60.9199 19.9712C61.0953 19.6037 61.5697 19.2736 62.5048 19.074C63.4188 18.879 64.6497 18.8366 66.1268 18.9282C69.0751 19.1108 72.8844 19.818 76.8355 20.7665C84.7418 22.6645 93.0996 25.4997 96.0665 26.9159C98.9879 28.3104 102.197 31.1625 104.436 34.1736C105.554 35.6766 106.412 37.1959 106.874 38.5671C107.34 39.9498 107.378 41.1052 106.977 41.9458C106.577 42.7863 105.654 43.4834 104.286 43.9917C102.93 44.4957 101.209 44.7853 99.3372 44.8629C95.5877 45.0184 91.3513 44.3194 88.4299 42.9262Z" fill="#FFCEC1" stroke="black"/>
<path d="M29.5158 -4.83648L29.516 -4.83641C32.4841 -3.42142 39.9463 1.292 46.3957 6.2439C49.6188 8.71854 52.5649 11.2347 54.5616 13.4113C55.562 14.5019 56.3034 15.4851 56.7267 16.3181C57.1598 17.1704 57.2015 17.7464 57.0263 18.1135C56.851 18.4806 56.3766 18.8106 55.4415 19.0101C54.5275 19.205 53.2967 19.2474 51.8196 19.1559C48.8715 18.9734 45.0623 18.2666 41.1112 17.3186C33.2048 15.4215 24.8462 12.5875 21.8768 11.1711C18.953 9.77648 15.7444 6.92512 13.5065 3.91439C12.3895 2.41163 11.5319 0.892402 11.0701 -0.478898C10.6044 -1.86166 10.5656 -3.01758 10.9661 -3.85902C11.3665 -4.70002 12.2884 -5.39742 13.6562 -5.90573C15.0127 -6.40982 16.7338 -6.69919 18.6056 -6.77647C22.3557 -6.93129 26.5932 -6.23104 29.5158 -4.83648Z" fill="#FFCEC1" stroke="black"/>
<path d="M76.9154 18.7797C84.9497 17.5285 93.5107 15.379 96.5841 14.2091L76.9154 18.7797ZM76.9154 18.7797C72.9003 19.405 69.0462 19.8011 66.093 19.7437M76.9154 18.7797L66.093 19.7437M66.093 19.7437C64.6133 19.715 63.3901 19.5726 62.4951 19.3036M66.093 19.7437L62.4951 19.3036M62.4951 19.3036C61.5797 19.0284 61.1335 18.6604 60.9885 18.2789M62.4951 19.3036L60.9885 18.2789M60.9885 18.2789C60.8434 17.8972 60.9323 17.325 61.4331 16.5102M60.9885 18.2789L61.4331 16.5102M61.4331 16.5102C61.9226 15.7136 62.7414 14.7932 63.8269 13.7871M61.4331 16.5102L63.8269 13.7871M63.8269 13.7871C65.9935 11.779 69.1339 9.51025 72.5468 7.30553M63.8269 13.7871L72.5468 7.30553M72.5468 7.30553C79.3761 2.8938 87.1956 -1.19731 90.2688 -2.36841M72.5468 7.30553L90.2688 -2.36841M90.2688 -2.36841C93.2948 -3.52152 97.5704 -3.87577 101.292 -3.4169M90.2688 -2.36841L101.292 -3.4169M101.292 -3.4169C103.15 -3.18785 104.841 -2.75953 106.152 -2.1466M101.292 -3.4169L106.152 -2.1466M106.152 -2.1466C107.474 -1.52861 108.338 -0.757847 108.672 0.114689M106.152 -2.1466L108.672 0.114689M108.672 0.114689C109.005 0.986515 108.875 2.13547 108.299 3.47567M108.672 0.114689L108.299 3.47567M108.299 3.47567C107.729 4.80488 106.751 6.24924 105.515 7.65617M108.299 3.47567L105.515 7.65617M105.515 7.65617C103.04 10.4748 99.6092 13.0557 96.5843 14.209L105.515 7.65617Z" fill="#FFCEC1" stroke="black"/>
<path d="M21.3631 23.879L21.3631 23.879C24.4349 22.7091 32.9952 20.5626 41.0293 19.3132C45.0443 18.6888 48.8984 18.2933 51.8516 18.3505C53.3313 18.3791 54.5547 18.5212 55.4498 18.7896C56.3656 19.0643 56.8115 19.4317 56.9564 19.8118C57.1012 20.1919 57.0128 20.7627 56.5119 21.577C56.0223 22.3729 55.2035 23.2928 54.1178 24.2986C51.951 26.306 48.8104 28.5748 45.3973 30.7798C38.5676 35.1922 30.748 39.2851 27.676 40.4563C24.6513 41.6095 20.3758 41.9637 16.6532 41.5051C14.7951 41.2762 13.1038 40.8481 11.792 40.2354C10.4694 39.6177 9.60451 38.8472 9.27013 37.9752C8.93615 37.1042 9.06679 35.9554 9.64237 34.6149C10.2132 33.2854 11.1916 31.8404 12.4278 30.4329C14.9043 27.613 18.3371 25.031 21.3631 23.879Z" fill="#FFCEC1" stroke="black"/>
<path d="M63.8087 56.6441L63.8085 56.6438C62.6386 53.572 60.4915 45.0117 59.2418 36.9775C58.6172 32.9625 58.2217 29.1085 58.279 26.1553C58.3077 24.6756 58.4498 23.4523 58.7184 22.5572C58.9932 21.6415 59.3608 21.1955 59.7412 21.0506C60.1218 20.9057 60.6929 20.9942 61.5073 21.495C62.3034 21.9846 63.2234 22.8033 64.2292 23.8888C66.2367 26.0555 68.5054 29.1958 70.7103 32.6087C75.1224 39.4381 79.2147 47.2577 80.3858 50.3308C81.5389 53.3568 81.8926 57.6323 81.4337 61.3546C81.2046 63.2125 80.7764 64.9036 80.1639 66.2152C79.5462 67.5377 78.7761 68.4025 77.9046 68.7368C77.0341 69.0708 75.8856 68.9408 74.5451 68.3659C73.2157 67.7959 71.7707 66.8184 70.363 65.5829C67.5428 63.1076 64.9603 59.6749 63.8087 56.6441Z" fill="#FFCEC1" stroke="black"/>
<path d="M54.1368 -18.5667C55.3065 -15.4883 57.4536 -6.92719 58.7034 1.1059C59.328 5.12042 59.7236 8.97359 59.6663 11.9261C59.6376 13.4053 59.4955 14.6283 59.2269 15.5231C58.9521 16.4385 58.5846 16.8844 58.2041 17.0293C57.8236 17.1743 57.2525 17.0857 56.4381 16.5848C55.642 16.0952 54.722 15.2764 53.7162 14.1907C51.7087 12.0239 49.44 8.88322 47.2351 5.46998C42.8231 -1.36006 38.7308 -9.18021 37.5597 -12.2534C36.4066 -15.2794 36.0529 -19.5549 36.5118 -23.2768C36.7409 -25.1346 37.1691 -26.8255 37.7816 -28.1367C38.3992 -29.4588 39.1692 -30.323 40.0405 -30.6568C40.9108 -30.9902 42.0596 -30.8594 43.4006 -30.2836C44.7304 -29.7127 46.176 -28.7343 47.584 -27.4984C50.4049 -25.0224 52.9874 -21.5909 54.1368 -18.5667Z" fill="#FFCEC1" stroke="black"/>
<path d="M70.0049 -17.2381C69.8103 -13.9546 68.2528 -5.26693 66.0932 2.57215C65.014 6.48963 63.7921 10.1662 62.5274 12.8355C61.8937 14.1729 61.2618 15.23 60.6495 15.9358C60.023 16.658 59.5049 16.9137 59.0987 16.8897C58.6925 16.8656 58.2083 16.5505 57.6714 15.7594C57.1467 14.9861 56.6441 13.8618 56.1728 12.4589C55.2321 9.659 54.453 5.86384 53.8439 1.84632C52.6253 -6.19293 52.1046 -15.0038 52.2991 -18.2872C52.4907 -21.5204 53.9242 -25.5696 55.8711 -28.7791C56.8428 -30.3811 57.9276 -31.7487 59.0244 -32.6935C60.1304 -33.6461 61.187 -34.1171 62.1178 -34.062C63.0486 -34.0068 64.0421 -33.4141 65.0279 -32.3371C66.0055 -31.269 66.9211 -29.7824 67.6968 -28.0765C69.2511 -24.6589 70.1963 -20.4687 70.0049 -17.2381Z" fill="#FFF0DE" stroke="black"/>
<path d="M47.9413 55.3235C48.1358 52.0413 49.6927 43.3542 51.8519 35.5154C52.9309 31.5981 54.1527 27.9216 55.4176 25.2524C56.0513 23.915 56.6833 22.858 57.2958 22.1521C57.9224 21.43 58.4407 21.1742 58.8473 21.1983C59.2539 21.2224 59.7384 21.5376 60.2753 22.3287C60.8002 23.1019 61.3029 24.2262 61.7743 25.629C62.7151 28.4289 63.4941 32.224 64.103 36.2414C65.3214 44.2803 65.8415 53.0905 65.647 56.3727C65.4555 59.6045 64.0214 63.6537 62.0742 66.8635C61.1023 68.4657 60.0174 69.8336 58.9206 70.7785C57.8147 71.7314 56.7584 72.2025 55.8283 72.1474C54.8982 72.0923 53.905 71.4997 52.9193 70.4229C51.9418 69.3551 51.0261 67.8686 50.2502 66.1629C48.6956 62.7455 47.7498 58.5554 47.9413 55.3235Z" fill="#FFF0DE" stroke="black"/>
<path d="M95.2513 30.0776C91.9679 29.883 83.2808 28.3255 75.4424 26.166C71.5252 25.0868 67.849 23.865 65.1799 22.6002C63.8426 21.9666 62.7856 21.3347 62.0799 20.7224C61.3578 20.0959 61.1021 19.5778 61.1261 19.1716C61.1502 18.7654 61.4653 18.2811 62.2563 17.7443C63.0295 17.2196 64.1537 16.717 65.5565 16.2457C68.3562 15.305 72.151 14.5258 76.1682 13.9168C84.2068 12.698 93.0171 12.1773 96.3005 12.3719C99.5336 12.5635 103.583 13.9975 106.792 15.9447C108.394 16.9166 109.762 18.0015 110.707 19.0982C111.659 20.2042 112.13 21.2604 112.075 22.1906C112.02 23.1207 111.428 24.1139 110.351 25.0996C109.283 26.0771 107.796 26.9928 106.091 27.7687C102.673 29.3233 98.4832 30.2691 95.2513 30.0776Z" fill="#FFF0DE" stroke="black"/>
<path d="M22.6912 8.01013C25.9734 8.20462 34.6605 9.76212 42.4992 11.9217C46.4166 13.0008 50.0931 14.2227 52.7623 15.4875C54.0997 16.1212 55.1568 16.753 55.8626 17.3654C56.5848 17.9919 56.8405 18.51 56.8164 18.9161C56.7924 19.3223 56.4773 19.8066 55.6862 20.3434C54.9129 20.8681 53.7886 21.3707 52.3858 21.842C49.5859 22.7827 45.7908 23.5619 41.7734 24.1709C33.7345 25.3896 24.9243 25.9103 21.6421 25.7158C18.4102 25.5243 14.361 24.0909 11.1511 22.144C9.54899 21.1722 8.18109 20.0874 7.23617 18.9906C6.28336 17.8845 5.81219 16.828 5.86734 15.8972C5.92249 14.9664 6.51514 13.9729 7.59191 12.9871C8.65975 12.0095 10.1462 11.0938 11.8519 10.3181C15.2692 8.76387 19.4593 7.81863 22.6912 8.01013Z" fill="#FFF0DE" stroke="black"/>
<path d="M91.9957 0.405455C89.5903 2.64586 82.4677 7.85707 75.495 12.0393C72.0105 14.1294 68.5889 15.9468 65.8315 17.0058C64.45 17.5364 63.2633 17.8654 62.3331 17.9538C61.3813 18.0442 60.8302 17.8718 60.5532 17.5744C60.2761 17.2769 60.1432 16.7148 60.3007 15.7715C60.4547 14.8496 60.8669 13.6888 61.4939 12.3479C62.7454 9.67171 64.8003 6.38648 67.1317 3.05805C71.797 -3.60248 77.4994 -10.3381 79.9054 -12.5744C82.275 -14.7768 86.1052 -16.714 89.7276 -17.6915C91.5358 -18.1794 93.264 -18.4203 94.7094 -18.3473C96.167 -18.2738 97.2566 -17.8864 97.8924 -17.2056C98.5278 -16.5252 98.8383 -15.4123 98.8091 -13.9538C98.7803 -12.5074 98.4178 -10.8006 97.8028 -9.03128C96.5706 -5.48658 94.3643 -1.80183 91.9957 0.405455Z" fill="#FFF0DE" stroke="black"/>
<path d="M25.949 37.6836L25.9492 37.6834C28.3545 35.4419 35.4772 30.23 42.4503 26.0477C45.935 23.9576 49.3568 22.1404 52.1144 21.0817C53.4961 20.5513 54.683 20.2225 55.6134 20.1344C56.5652 20.0442 57.1168 20.2168 57.3942 20.5146C57.6716 20.8125 57.8046 21.3749 57.6471 22.3183C57.4932 23.2403 57.0809 24.4012 56.4537 25.7421C55.202 28.4183 53.1465 31.7033 50.8145 35.0314C46.1479 41.6912 40.4444 48.4256 38.0396 50.6607C35.6714 52.8619 31.8412 54.7992 28.2183 55.7773C26.41 56.2655 24.6814 56.5068 23.2357 56.4344C21.7779 56.3614 20.6881 55.9745 20.0523 55.2943C19.417 54.6145 19.1064 53.5019 19.1353 52.0432C19.164 50.5968 19.5263 48.8896 20.1412 47.12C21.3731 43.5747 23.5794 39.8894 25.949 37.6836Z" fill="#FFF0DE" stroke="black"/>
<path d="M77.6104 52.0666C75.37 49.6613 70.1587 42.5386 65.9764 35.5658C63.8864 32.0813 62.0689 28.6597 61.0099 25.9023C60.4793 24.5208 60.1503 23.3341 60.0619 22.4039C59.9716 21.4522 60.1439 20.901 60.4414 20.624C60.7388 20.3469 61.3009 20.214 62.2442 20.3716C63.1661 20.5257 64.3269 20.938 65.6678 21.5651C68.344 22.8167 71.6292 24.8719 74.9576 27.2034C81.6181 31.869 88.3538 37.5715 90.5902 39.9763C92.7926 42.3446 94.7298 46.1747 95.7076 49.7976C96.1956 51.6058 96.4367 53.3344 96.3641 54.7801C96.2909 56.2379 95.9039 57.3277 95.2237 57.9635C94.5439 58.5988 93.4312 58.9094 91.9726 58.8805C90.5261 58.8518 88.8188 58.4895 87.0491 57.8746C83.5034 56.6427 79.8175 54.4364 77.6104 52.0666L77.2445 52.4074L77.6104 52.0666Z" fill="#FFF0DE" stroke="black"/>
<path d="M40.3318 -13.9794C42.5734 -11.5727 47.7853 -4.44998 51.9676 2.52247C54.0577 6.00686 55.875 9.4282 56.9337 12.1853C57.4641 13.5667 57.7929 14.7533 57.8811 15.6834C57.9712 16.6349 57.7987 17.186 57.501 17.4631C57.2032 17.7403 56.6407 17.8732 55.6973 17.7156C54.7752 17.5617 53.6143 17.1494 52.2734 16.5224C49.5971 15.271 46.312 13.2161 42.9839 10.8847C36.324 6.21942 29.5897 0.51715 27.3547 -1.88872C25.1535 -4.25829 23.2162 -8.08916 22.2382 -11.7117C21.7499 -13.5199 21.5086 -15.2481 21.581 -16.6931C21.6539 -18.1503 22.0407 -19.2389 22.7206 -19.8733C23.4003 -20.5076 24.513 -20.8177 25.9718 -20.7885C27.4183 -20.7596 29.1255 -20.3976 30.8952 -19.7831C34.4407 -18.5521 38.126 -16.3477 40.3318 -13.9794Z" fill="#FFF0DE" stroke="black"/>
<path d="M65.7488 21.1432L65.7487 21.1436C65.6674 22.5161 65.1809 23.8337 64.3507 24.9296C63.5205 26.0256 62.3839 26.8508 61.0848 27.3008C59.7856 27.7508 58.3821 27.8054 57.0519 27.4577C55.7217 27.11 54.5244 26.3756 53.6116 25.3474C52.6987 24.3193 52.1113 23.0435 51.9236 21.6815C51.7359 20.3194 51.9563 18.9323 52.557 17.6956C53.1577 16.4588 54.1116 15.4279 55.2982 14.7334C56.4848 14.0388 57.8507 13.7117 59.2232 13.7935L59.2236 13.7935C60.1347 13.8475 61.0262 14.0805 61.8472 14.4791C62.6683 14.8777 63.4027 15.4341 64.0087 16.1166C64.6146 16.7991 65.0802 17.5943 65.3788 18.4568C65.6773 19.3193 65.8031 20.2321 65.7488 21.1432Z" fill="white" stroke="#87C5FF" stroke-width="2.42319"/>
<path d="M64.2038 21.0517L64.2038 21.0519C64.1406 22.1186 63.7625 23.1426 63.1173 23.9943C62.4721 24.8461 61.5888 25.4874 60.5791 25.8371C59.5693 26.1869 58.4786 26.2293 57.4448 25.9591C56.411 25.6889 55.4805 25.1181 54.7711 24.319C54.0616 23.52 53.6051 22.5285 53.4592 21.4699C53.3133 20.4114 53.4846 19.3333 53.9514 18.3721C54.4183 17.411 55.1597 16.6098 56.0819 16.07C57.004 15.5302 58.0656 15.276 59.1323 15.3396L59.1324 15.3396C59.8405 15.3815 60.5334 15.5626 61.1715 15.8724C61.8097 16.1822 62.3805 16.6146 62.8514 17.1451C63.3224 17.6755 63.6842 18.2936 63.9162 18.9639C64.1483 19.6342 64.246 20.3436 64.2038 21.0517Z" fill="#87C5FF" stroke="white"/>
</g>
<defs>
<clipPath id="clip0_1742_79263">
<rect width="107.372" height="107.372" fill="white" transform="translate(8.55957 -37.7236) rotate(3.39107)"/>
</clipPath>
</defs>
</svg>
