<svg width="24" height="24" viewBox="0 0 24 24" fill="none" xmlns="http://www.w3.org/2000/svg">
<path fill-rule="evenodd" clip-rule="evenodd" d="M2.61458 11.0762C3.38751 10.0299 4.88913 8.32246 7.11944 7.18041L9.1411 9.20207C8.43499 9.92339 7.99969 10.9109 7.99969 12C7.99969 14.2091 9.79056 16 11.9997 16C13.0888 16 14.0763 15.5647 14.7976 14.8586L16.7994 16.8604C15.4587 17.5334 13.8588 18 11.9997 18C6.98616 18 3.85779 14.6067 2.61458 12.9238C2.20399 12.368 2.20399 11.632 2.61458 11.0762ZM15.6649 13.6045L18.1342 16.0739C19.6834 15.0191 20.7669 13.7602 21.3848 12.9238C21.7954 12.368 21.7954 11.632 21.3848 11.0762C20.1416 9.39329 17.0132 6 11.9997 6C10.7536 6 9.624 6.20961 8.61083 6.55048L10.3952 8.33482C10.8863 8.11949 11.4291 8 11.9997 8C14.2088 8 15.9997 9.79086 15.9997 12C15.9997 12.5706 15.8802 13.1134 15.6649 13.6045Z" fill="#797979"/>
<path fill-rule="evenodd" clip-rule="evenodd" d="M5.28033 4.71967C4.98744 4.42678 4.51256 4.42678 4.21967 4.71967C3.92678 5.01256 3.92678 5.48744 4.21967 5.78033L8.44112 10.0018C8.72479 9.5851 9.0851 9.22479 9.50178 8.94112L5.28033 4.71967ZM15.0589 14.4982C14.7752 14.9149 14.4149 15.2752 13.9982 15.5589L18.2197 19.7803C18.5126 20.0732 18.9874 20.0732 19.2803 19.7803C19.5732 19.4874 19.5732 19.0126 19.2803 18.7197L15.0589 14.4982Z" fill="#797979"/>
<circle cx="12" cy="12" r="2" fill="#797979"/>
</svg>
