<svg width="24" height="24" viewBox="0 0 24 24" fill="none" xmlns="http://www.w3.org/2000/svg">
<path fill-rule="evenodd" clip-rule="evenodd" d="M2.61458 12.9238C3.85779 14.6067 6.98616 18 11.9997 18C17.0132 18 20.1416 14.6067 21.3848 12.9238C21.7954 12.368 21.7954 11.632 21.3848 11.0762C20.1416 9.39329 17.0132 6 11.9997 6C6.98616 6 3.85779 9.39329 2.61458 11.0762C2.20399 11.632 2.20399 12.368 2.61458 12.9238ZM9.74969 12C9.74969 10.7574 10.757 9.75 11.9997 9.75C13.2423 9.75 14.2497 10.7574 14.2497 12C14.2497 13.2426 13.2423 14.25 11.9997 14.25C10.757 14.25 9.74969 13.2426 9.74969 12ZM11.9997 8.25C9.92862 8.25 8.24969 9.92893 8.24969 12C8.24969 14.0711 9.92862 15.75 11.9997 15.75C14.0708 15.75 15.7497 14.0711 15.7497 12C15.7497 9.92893 14.0708 8.25 11.9997 8.25Z" fill="#797979"/>
</svg>
