<svg width="719" height="901" viewBox="0 0 719 901" fill="none" xmlns="http://www.w3.org/2000/svg">
<path d="M18.2837 66.1733C12.443 77.8624 9.69304 91.0278 8.34068 107.856C6.99996 124.54 6.99998 145.42 7 172.681V173V728V728.319C6.99998 755.58 6.99996 776.46 8.34068 793.144C9.69304 809.972 12.443 823.138 18.2837 834.827C28.6406 855.554 45.4459 872.359 66.1733 882.716C77.8624 888.557 91.0278 891.307 107.856 892.659C124.541 894 145.42 894 172.682 894H173H546H546.318C573.58 894 594.459 894 611.144 892.659C627.972 891.307 641.138 888.557 652.827 882.716C673.554 872.359 690.359 855.554 700.716 834.827C706.557 823.138 709.307 809.972 710.659 793.144C712 776.459 712 755.58 712 728.318V728V173V172.682C712 145.42 712 124.541 710.659 107.856C709.307 91.0278 706.557 77.8624 700.716 66.1733C690.359 45.4459 673.554 28.6406 652.827 18.2837C641.138 12.443 627.972 9.69304 611.144 8.34068C594.46 6.99996 573.58 6.99998 546.319 7H546H173H172.681C145.42 6.99998 124.54 6.99996 107.856 8.34068C91.0278 9.69304 77.8624 12.443 66.1733 18.2837C45.4459 28.6406 28.6406 45.4459 18.2837 66.1733Z" fill="#FDFAEF" stroke="#FFCEC1" stroke-width="14"/>
</svg>
