<svg width="20" height="20" viewBox="0 0 20 20" fill="none" xmlns="http://www.w3.org/2000/svg">
<path fill-rule="evenodd" clip-rule="evenodd" d="M0 10C0 15.5228 4.47715 20 10 20C15.5228 20 20 15.5228 20 10C20 4.47715 15.5228 0 10 0C4.47715 0 0 4.47715 0 10ZM14.5857 8.46852C14.8444 8.14508 14.792 7.67311 14.4685 7.41435C14.1451 7.15559 13.6731 7.20803 13.4143 7.53148L10 11.7994L6.58565 7.53148C6.3269 7.20803 5.85493 7.15559 5.53148 7.41435C5.20803 7.67311 5.15559 8.14508 5.41435 8.46852L9.02391 12.9805C9.52432 13.606 10.4757 13.606 10.9761 12.9805L14.5857 8.46852Z" fill="#363636"/>
</svg>
