<svg width="24" height="24" viewBox="0 0 24 24" fill="none" xmlns="http://www.w3.org/2000/svg">
<path fill-rule="evenodd" clip-rule="evenodd" d="M12.8395 3.29752C12.4454 2.68859 11.5545 2.68859 11.1604 3.29752L10.2782 4.66074C10.0211 5.05814 9.52047 5.22079 9.07883 5.05045L7.56385 4.46612C6.88712 4.2051 6.16632 4.72879 6.20544 5.45306L6.29302 7.07446C6.31855 7.54712 6.00917 7.97294 5.55174 8.09473L3.98264 8.51248C3.28173 8.69908 3.00642 9.54643 3.46378 10.1094L4.48766 11.3696C4.78614 11.737 4.78614 12.2634 4.48766 12.6308L3.46378 13.891C3.00642 14.454 3.28173 15.3013 3.98264 15.4879L5.55174 15.9057C6.00917 16.0275 6.31855 16.4533 6.29302 16.926L6.20544 18.5474C6.16632 19.2716 6.88712 19.7953 7.56385 19.5343L9.07882 18.95C9.52047 18.7796 10.0211 18.9423 10.2782 19.3397L11.1604 20.7029C11.5545 21.3118 12.4454 21.3118 12.8395 20.7029L13.7217 19.3397C13.9789 18.9423 14.4794 18.7796 14.9211 18.95L16.4361 19.5343C17.1128 19.7953 17.8336 19.2716 17.7945 18.5474L17.7069 16.926C17.6814 16.4533 17.9907 16.0275 18.4482 15.9057L20.0173 15.4879C20.7182 15.3013 20.9935 14.454 20.5361 13.891L19.5122 12.6308C19.2138 12.2634 19.2138 11.737 19.5122 11.3696L20.5361 10.1094C20.9935 9.54643 20.7182 8.69908 20.0173 8.51248L18.4482 8.09473C17.9907 7.97294 17.6814 7.54712 17.7069 7.07446L17.7945 5.45306C17.8336 4.72879 17.1128 4.2051 16.4361 4.46612L14.9211 5.05045C14.4794 5.22079 13.9789 5.05814 13.7217 4.66074L12.8395 3.29752ZM15.5303 10.5305C15.8232 10.2376 15.8232 9.76277 15.5303 9.46988C15.2374 9.17698 14.7625 9.17698 14.4696 9.46988L11 12.9395L9.53028 11.4699C9.23739 11.177 8.76252 11.177 8.46962 11.4699C8.17673 11.7628 8.17673 12.2376 8.46962 12.5305L10.1161 14.177C10.6042 14.6651 11.3957 14.6651 11.8838 14.177L15.5303 10.5305Z" fill="#33C200"/>
</svg>
